<?xml version="1.0" encoding="UTF-8"?>
<!DOCTYPE svg [
	<!ENTITY ns_flows "http://ns.adobe.com/Flows/1.0/">
]>
<svg width="191px" height="210px" baseProfile="tiny" version="1.2" viewBox="-6.5 -13.7 191 210" xml:space="preserve" xmlns="http://www.w3.org/2000/svg">
<path d="m175.1 111.8h-120.3c0 4.5 0.7 8.6 2.1 12.4 1.5 3.6 3.4 6.9 5.8 9.8s5.3 5.3 8.6 7.4c3.2 2.1 6.8 3.8 10.5 5.1 3.7 1.4 7.6 2.4 11.6 3s7.9 1 11.9 1c5 0 9.6-0.4 14.1-1.2 4.4-0.8 8.7-1.9 12.9-3.3s8.3-3 12.4-4.9 8.3-3.9 12.6-6.2v39.9c-4.8 2.4-9.5 4.3-14.2 6-4.7 1.6-9.4 3.1-14.2 4.2-4.8 1.2-9.6 2.1-14.6 2.6s-10.1 0.8-15.4 0.8c-7.1 0-13.9-0.8-20.4-2.4-6.6-1.6-12.7-3.9-18.5-7s-11-6.8-15.8-11.1c-4.8-4.4-8.9-9.3-12.4-14.7-3.4-5.4-6.1-11.4-8-17.8s-2.8-13.2-2.8-20.5c0-7.7 1.1-15.1 3.2-22.1 2.1-7.1 5.2-13.5 9.2-19.4s8.8-11.1 14.6-15.7c5.7-4.6 12.2-8.3 19.4-11.2-3.9 3.9-7 8.5-9.1 13.9-2.3 5.2-3.7 10.6-4.3 16h67c0-6.8-0.7-12.6-2.1-17.7s-3.6-9.3-6.7-12.6c-3.1-3.4-7-5.9-11.9-7.5-4.7-1.7-10.6-2.6-17.4-2.6-8.1 0-16.2 1.2-24.3 3.6s-15.8 5.7-23.1 10-14 9.4-20.1 15.2c-6.1 6-11.2 12.3-15.4 19.1 0.9-7.9 2.6-15.5 5.1-22.8 2.4-7.3 5.7-14 9.6-20.3 3.9-6.2 8.4-11.8 13.6-16.9s11-9.4 17.4-12.9c6.3-3.6 13.1-6.4 20.4-8.3 7.4-1.7 15.2-2.7 23.5-2.7 4.8 0 9.6 0.4 14.4 1.3s9.5 2.1 14 3.6c9.1 3.1 17.1 7.5 24.3 13 7.1 5.6 13.1 11.9 17.9 19.2 4.9 7.3 8.5 15.3 11.1 24 2.5 8.7 3.8 17.8 3.8 27.3v23.4z" fill="#1E72BA"/>
</svg>
