<?xml version="1.0" encoding="UTF-8"?>
<!DOCTYPE svg [
	<!ENTITY ns_flows "http://ns.adobe.com/Flows/1.0/">
]>
<svg width="110px" height="156px" baseProfile="tiny" version="1.2" viewBox="-13.4 -7.1 110 156" xml:space="preserve" xmlns="http://www.w3.org/2000/svg">
<path d="M62.9,88.9c0-13,26.8-20.4,26.8-49.1C89.7,17.8,69.6,0,44.9,0S0,17.8,0,39.9  c0,28.6,26.8,36,26.8,49.1H62.9z" fill="#FFC944"/>
	<path d="M62.9,88.9c0-13,26.8-20.4,26.8-49.1C89.7,17.8,69.6,0,44.9,0S0,17.8,0,39.9c0,28.6,26.8,36,26.8,49.1H62.9   z" fill="#1E72BA"/>
<g fill="#1660A9">
	<path d="m36.2 91.1c-1.4 0-2.5-1-2.5-2.2 0-11.5-3.7-16.4-7.6-21.7-3.7-4.9-7.4-9.9-7.4-19.8 0-1.2 1.1-2.2 2.5-2.2s2.5 1 2.5 2.2c0 8.5 3.1 12.6 6.6 17.3 4 5.3 8.5 11.3 8.5 24.1-0.1 1.3-1.2 2.3-2.6 2.3z"/>
	<path d="m53.6 91.1c-1.4 0-2.5-1-2.5-2.2 0-12.8 4.5-18.8 8.5-24.1 3.5-4.7 6.6-8.8 6.6-17.3 0-1.2 1.1-2.2 2.5-2.2s2.5 1 2.5 2.2c0 9.8-3.8 14.9-7.4 19.8-4 5.2-7.8 10.2-7.8 21.6 0 1.2-1.1 2.2-2.4 2.2z"/>
</g>
<path d="m53 57.6c-0.8 0-1.5-0.3-1.9-0.8l-6.2-6.8-6.2 6.8c-0.5 0.5-1.2 0.8-1.9 0.8-0.8 0-1.5-0.3-1.9-0.8l-8.1-9c-0.9-1-0.7-2.3 0.4-3.1s2.6-0.6 3.5 0.3l6.2 6.8 6.2-6.8c0.5-0.5 1.2-0.8 1.9-0.8s1.5 0.3 1.9 0.8l6.2 6.8 6.2-6.8c0.9-1 2.4-1.1 3.5-0.3s1.2 2.2 0.4 3.1l-8.1 9c-0.6 0.5-1.4 0.8-2.1 0.8z" fill="#fff"/>
<path d="M25.2,83.4c1,1.8,1.6,3.6,1.6,5.5h36.1c0-1.9,0.6-3.8,1.6-5.5H25.2z" fill="#010101"/>
<ellipse cx="44.9" cy="131.9" rx="6.1" ry="5.4" fill="#5D6771"/>
<path d="m44.9 126.4c-3.4 0-6.1 2.4-6.1 5.4 0 0.2 0 0.5 0.1 0.7 1.9 0.5 3.9 0.8 6.1 0.8 2.1 0 4.1-0.3 6.1-0.8 0-0.2 0.1-0.5 0.1-0.7-0.2-2.9-3-5.4-6.3-5.4z" fill="#010101"/>
<ellipse cx="44.9" cy="115.8" rx="18.1" ry="16.1" fill="#343F49"/>
<path d="m44.9 99.7c-10 0-18.1 7.2-18.1 16.1 0 1.2 0.1 2.3 0.4 3.4h35.4c0.3-1.1 0.4-2.2 0.4-3.4 0-8.9-8.1-16.1-18.1-16.1z" fill="#010101"/>
<path d="m70.6 110.3c0 3-2.8 5.4-6.1 5.4h-39.2c-3.4 0-6.1-2.4-6.1-5.4v-16.9c0-3 2.8-5.4 6.1-5.4h39.1c3.4 0 6.1 2.5 6.1 5.4v16.9z" fill="#5D6771"/>
<rect x="19.2" y="94.5" width="51.4" height="4.4" fill="#343F49"/>
<rect x="19.2" y="104.9" width="51.4" height="4.4" fill="#343F49"/>
</svg>
