<?xml version="1.0" encoding="UTF-8"?>
<!DOCTYPE svg [
	<!ENTITY ns_flows "http://ns.adobe.com/Flows/1.0/">
]>
<svg width="163px" height="213px" baseProfile="tiny" version="1.2" viewBox="-6.3 -10.7 163 213" xml:space="preserve" xmlns="http://www.w3.org/2000/svg">
<path d="m142.3 0h-112.7c-2.5 0-4.5 2-4.5 4.5v67.4h6.2c-1.9-2.4-2.9-5.3-2.9-8.4 0-3.6 1.4-7.1 4-9.6 0.5-0.5 1.1-1 1.7-1.4v-43.5h103.7v3.2l-47.3 34.4v147.1l47.6-34.5c0.6 1.8 2.3 3.1 4.2 3.1 2.5 0 4.5-2 4.5-4.5v-153.3c0-2.5-2-4.5-4.5-4.5zm-33.9 123.6c-2.1 0-3.9-2.6-4.4-6.1h-5.1v-3.9h5.1c0.5-3.3 2.2-5.7 4.3-5.7 2.5 0 4.5 3.5 4.5 7.9 0 4.3-2 7.8-4.4 7.8zm-76-6.5c0.5 0.5 1.1 1 1.7 1.4v39.2c0 2.5-2 4.5-4.5 4.5s-4.5-2-4.5-4.5v-58.6h6.2c-4.1 5.3-3.8 13.1 1.1 18zm32.3-35.8c1.8 1.8 1.8 4.7 0 6.5l-22 22c-0.9 0.9-2.1 1.3-3.2 1.3-1.2 0-2.3-0.4-3.2-1.3-1.8-1.8-1.8-4.7 0-6.5l14.1-14.1h-45.8c-2.5 0-4.6-2.1-4.6-4.6 0-2.6 2-4.6 4.6-4.6h45.8l-14.2-14.2c-1.8-1.8-1.8-4.7 0-6.5s4.7-1.8 6.5 0l22 22z" fill="#1E72BA"/>
</svg>
